<svg width="36" height="36" viewBox="0 0 36 36" fill="none" xmlns="http://www.w3.org/2000/svg">
<path d="M29.46 23.73V28.02C24.72 28.02 20.865 30.585 20.865 33.75H15.135C15.135 30.585 11.28 28.02 6.53999 28.02V23.73H29.46Z" stroke="#191919" stroke-width="1.5" stroke-miterlimit="10"/>
<path d="M16.575 13.71C16.575 15.2297 15.9713 16.6871 14.8967 17.7617C13.8221 18.8363 12.3647 19.44 10.845 19.44C9.32532 19.44 7.86787 18.8363 6.79328 17.7617C5.7187 16.6871 5.11501 15.2297 5.11501 13.71C5.33489 11.5133 6.35454 9.47395 7.98001 7.98L16.575 13.71Z" stroke="#191919" stroke-width="1.5" stroke-miterlimit="10"/>
<path d="M19.5 13.71C19.5 15.2297 20.1037 16.6871 21.1783 17.7617C22.2529 18.8363 23.7103 19.44 25.23 19.44C26.7497 19.44 28.2071 18.8363 29.2817 17.7617C30.3563 16.6871 30.96 15.2297 30.96 13.71C30.7401 11.5133 29.7205 9.47395 28.095 7.98L19.5 13.71Z" stroke="#191919" stroke-width="1.5" stroke-miterlimit="10"/>
<path d="M16.575 13.71H19.425" stroke="#191919" stroke-width="1.5" stroke-miterlimit="10"/>
<path d="M7.98001 7.98L12.9 4.035C14.3486 2.87914 16.1468 2.24975 18 2.25V2.25C19.8532 2.24975 21.6515 2.87914 23.1 4.035L28.02 7.98" stroke="#191919" stroke-width="1.5" stroke-miterlimit="10"/>
</svg>
