<svg width="12" height="15" viewBox="0 0 12 15" fill="none" xmlns="http://www.w3.org/2000/svg">
<path d="M10.77 8.9298C10.77 10.1949 10.2674 11.4082 9.37288 12.3027C8.47833 13.1973 7.26506 13.6998 5.99998 13.6998C4.7349 13.6998 3.52163 13.1973 2.62708 12.3027C1.73253 11.4082 1.22998 10.1949 1.22998 8.9298C1.22998 6.0998 2.90998 4.5598 4.22998 2.9998L5.00998 4.1598L5.99998 1.2998C5.99998 1.2998 10.77 4.1598 10.77 8.9298Z" stroke="#D9121F" stroke-width="1.5" stroke-miterlimit="10"/>
<path d="M7.90984 11.6099C7.90984 12.1165 7.70861 12.6023 7.35042 12.9605C6.99222 13.3187 6.50641 13.5199 5.99984 13.5199C5.49328 13.5199 5.00746 13.3187 4.64927 12.9605C4.29108 12.6023 4.08984 12.1165 4.08984 11.6099C4.08984 9.69992 5.99984 8.16992 5.99984 8.16992C5.99984 8.16992 7.90984 9.69992 7.90984 11.6099Z" stroke="#D9121F" stroke-width="1.5" stroke-miterlimit="10"/>
</svg>
