<svg width="36" height="36" viewBox="0 0 36 36" fill="none" xmlns="http://www.w3.org/2000/svg">
<path d="M6.495 13.725H12.255C13.0188 13.725 13.7514 14.0284 14.2915 14.5685C14.8316 15.1086 15.135 15.8412 15.135 16.605V18.105C15.135 18.8594 14.9864 19.6065 14.6977 20.3035C14.409 21.0005 13.9858 21.6338 13.4523 22.1673C12.9189 22.7008 12.2855 23.124 11.5885 23.4127C10.8915 23.7014 10.1444 23.85 9.39 23.85H7.89C7.32465 23.8441 6.76599 23.7269 6.24593 23.5051C5.72588 23.2833 5.2546 22.9613 4.85901 22.5573C4.46343 22.1534 4.15129 21.6755 3.94041 21.1509C3.72954 20.6263 3.62406 20.0653 3.63 19.5V16.59C3.63394 15.8314 3.93705 15.1049 4.47349 14.5685C5.00993 14.032 5.73637 13.7289 6.495 13.725V13.725Z" stroke="#191919" stroke-width="1.5" stroke-miterlimit="10"/>
<path d="M28.065 23.775H26.565C25.0466 23.7592 23.5961 23.1428 22.5308 22.0606C21.4655 20.9784 20.872 19.5185 20.88 18V16.5C20.88 16.1218 20.9545 15.7473 21.0992 15.3979C21.244 15.0485 21.4561 14.731 21.7235 14.4635C21.991 14.1961 22.3085 13.984 22.6579 13.8392C23.0073 13.6945 23.3818 13.62 23.76 13.62L29.505 13.62C29.8832 13.62 30.2577 13.6945 30.6071 13.8392C30.9566 13.984 31.274 14.1961 31.5415 14.4635C31.8089 14.731 32.021 15.0485 32.1658 15.3979C32.3105 15.7473 32.385 16.1218 32.385 16.5V19.5C32.3771 20.6392 31.918 21.7287 31.1082 22.53C30.2985 23.3313 29.2042 23.779 28.065 23.775V23.775Z" stroke="#191919" stroke-width="1.5" stroke-miterlimit="10"/>
<path d="M15.12 18C15.12 17.2362 15.4234 16.5036 15.9635 15.9635C16.5036 15.4234 17.2362 15.12 18 15.12C18.7638 15.12 19.4964 15.4234 20.0365 15.9635C20.5766 16.5036 20.88 17.2362 20.88 18" stroke="#191919" stroke-width="1.5" stroke-miterlimit="10"/>
<path d="M35.25 15.15H32.37" stroke="#191919" stroke-width="1.5" stroke-miterlimit="10"/>
<path d="M3.63 15.15H0.75" stroke="#191919" stroke-width="1.5" stroke-miterlimit="10"/>
</svg>
