<svg width="36" height="36" viewBox="0 0 36 36" fill="none" xmlns="http://www.w3.org/2000/svg">
<path d="M31.5 25.605L23.595 27.36C21.7392 27.7792 19.8425 27.9905 17.94 27.99V27.99C16.0375 27.9905 14.1408 27.7792 12.285 27.36L4.5 25.605C3.86972 25.4807 3.30164 25.1427 2.89172 24.648C2.48179 24.1534 2.25513 23.5324 2.25 22.89V22.89C2.2487 22.4706 2.34196 22.0564 2.52284 21.678C2.70372 21.2997 2.96756 20.967 3.29475 20.7046C3.62194 20.4423 4.00406 20.2571 4.41269 20.1628C4.82132 20.0685 5.24595 20.0676 5.655 20.16L12.345 21.66C14.2025 22.0669 16.0984 22.2731 18 22.275V22.275C19.9016 22.2731 21.7975 22.0669 23.655 21.66L30.345 20.16C30.7541 20.0676 31.1787 20.0685 31.5873 20.1628C31.9959 20.2571 32.3781 20.4423 32.7053 20.7046C33.0324 20.967 33.2963 21.2997 33.4772 21.678C33.658 22.0564 33.7513 22.4706 33.75 22.89V22.89C33.7449 23.5324 33.5182 24.1534 33.1083 24.648C32.6984 25.1427 32.1303 25.4807 31.5 25.605V25.605Z" stroke="#191919" stroke-width="1.5" stroke-miterlimit="10"/>
<path d="M8.01 15L12.345 15.96C14.2053 16.3417 16.1011 16.5228 18 16.5C19.9016 16.4981 21.7975 16.2919 23.655 15.885L27.99 15" stroke="#191919" stroke-width="1.5" stroke-miterlimit="10"/>
<path d="M7.095 20.475L8.895 9.63C9.03746 8.75833 9.48541 7.96578 10.1587 7.39416C10.832 6.82253 11.6868 6.50912 12.57 6.51C13.3127 6.50449 14.0396 6.72414 14.655 7.14L18 9.375L21.345 7.14C21.9604 6.72414 22.6873 6.50449 23.43 6.51C24.3144 6.50978 25.1702 6.82339 25.845 7.395C26.5188 7.9653 26.9659 8.75827 27.105 9.63L28.905 20.475" stroke="#191919" stroke-width="1.5" stroke-miterlimit="10"/>
</svg>
