<svg width="24" height="24" viewBox="0 0 24 24" fill="none" xmlns="http://www.w3.org/2000/svg">
<path d="M20.59 1.5V7.23H4.36C3.62941 7.18682 2.94293 6.86617 2.44092 6.33362C1.93892 5.80107 1.65933 5.09686 1.65933 4.365C1.65933 3.63314 1.93892 2.92893 2.44092 2.39638C2.94293 1.86383 3.62941 1.54318 4.36 1.5H20.59Z" stroke="#191919" stroke-width="1.5" stroke-miterlimit="10" stroke-linecap="square"/>
<path d="M18.68 13H22.5V16.82H18.68C18.1734 16.82 17.6876 16.6188 17.3294 16.2606C16.9712 15.9024 16.77 15.4166 16.77 14.91C16.77 14.4034 16.9712 13.9176 17.3294 13.5594C17.6876 13.2012 18.1734 13 18.68 13Z" stroke="#191919" stroke-width="1.5" stroke-miterlimit="10" stroke-linecap="square"/>
<path d="M22.5 7.22937V22.4994H3.40999C2.90423 22.4967 2.41994 22.2947 2.06232 21.937C1.70469 21.5794 1.50261 21.0951 1.49999 20.5894V4.35938C1.49867 4.7358 1.57168 5.10877 1.71481 5.45692C1.85795 5.80507 2.06841 6.12153 2.33412 6.38817C2.59982 6.6548 2.91555 6.86636 3.2632 7.01072C3.61084 7.15507 3.98356 7.22938 4.35999 7.22937H22.5Z" stroke="#191919" stroke-width="1.5" stroke-miterlimit="10" stroke-linecap="square"/>
</svg>
