<svg width="24" height="24" viewBox="0 0 24 24" fill="none" xmlns="http://www.w3.org/2000/svg">
<path d="M6.26998 19.6403C7.32485 19.6403 8.17998 18.7852 8.17998 17.7303C8.17998 16.6754 7.32485 15.8203 6.26998 15.8203C5.21512 15.8203 4.35999 16.6754 4.35999 17.7303C4.35999 18.7852 5.21512 19.6403 6.26998 19.6403Z" stroke="#191919" stroke-width="1.5" stroke-miterlimit="10"/>
<path d="M17.73 19.6403C18.7849 19.6403 19.64 18.7852 19.64 17.7303C19.64 16.6754 18.7849 15.8203 17.73 15.8203C16.6751 15.8203 15.82 16.6754 15.82 17.7303C15.82 18.7852 16.6751 19.6403 17.73 19.6403Z" stroke="#191919" stroke-width="1.5" stroke-miterlimit="10"/>
<path d="M4.36 17.7294H1.5V4.35938H18.68V8.17937L20.59 11.9994L22.5 13.0694V17.7294H19.64" stroke="#191919" stroke-width="1.5" stroke-miterlimit="10"/>
<path d="M15.82 17.7305H8.17999" stroke="#191919" stroke-width="1.5" stroke-miterlimit="10"/>
<path d="M20.59 11.9997H14.86V8.17969H18.68" stroke="#191919" stroke-width="1.5" stroke-miterlimit="10"/>
</svg>
