<svg width="14" height="14" viewBox="0 0 14 14" fill="none" xmlns="http://www.w3.org/2000/svg">
<path d="M0 0H2V2H0V0Z" fill="#C4C4C4"/>
<path d="M0 4H2V6H0V4Z" fill="#C4C4C4"/>
<path d="M0 8H2V10H0V8Z" fill="#C4C4C4"/>
<path d="M0 12H2V14H0V12Z" fill="#C4C4C4"/>
<path d="M4 0H6V2H4V0Z" fill="#C4C4C4"/>
<path d="M4 4H6V6H4V4Z" fill="#C4C4C4"/>
<path d="M4 8H6V10H4V8Z" fill="#C4C4C4"/>
<path d="M4 12H6V14H4V12Z" fill="#C4C4C4"/>
<path d="M8 0H10V2H8V0Z" fill="#C4C4C4"/>
<path d="M8 4H10V6H8V4Z" fill="#C4C4C4"/>
<path d="M8 8H10V10H8V8Z" fill="#C4C4C4"/>
<path d="M8 12H10V14H8V12Z" fill="#C4C4C4"/>
<path d="M12 0H14V2H12V0Z" fill="#C4C4C4"/>
<path d="M12 4H14V6H12V4Z" fill="#C4C4C4"/>
<path d="M12 8H14V10H12V8Z" fill="#C4C4C4"/>
<path d="M12 12H14V14H12V12Z" fill="#C4C4C4"/>
</svg>
