<svg width="20" height="20" viewBox="0 0 20 20" fill="none" xmlns="http://www.w3.org/2000/svg">
<path d="M2.84165 10.8333L2.56665 10.5583C2.14697 10.1403 1.81374 9.64369 1.58598 9.09686C1.35822 8.55004 1.2404 7.96371 1.23924 7.37135C1.23689 6.17502 1.70988 5.02676 2.55415 4.17917C3.39843 3.33159 4.54482 2.8541 5.74115 2.85176C6.93748 2.84941 8.08574 3.3224 8.93332 4.16667L9.99999 5.25001L11.0667 4.16667C11.4808 3.73383 11.9772 3.38803 12.5268 3.14956C13.0763 2.91109 13.6679 2.78475 14.267 2.77794C14.866 2.77113 15.4603 2.884 16.0152 3.10992C16.57 3.33584 17.0741 3.67026 17.498 4.09359C17.9219 4.51691 18.257 5.0206 18.4836 5.57513C18.7102 6.12966 18.8239 6.72386 18.8179 7.32289C18.8118 7.92192 18.6863 8.51372 18.4485 9.06358C18.2108 9.61344 17.8656 10.1103 17.4333 10.525L17.1583 10.8L9.99999 17.975L5.05832 13.0333L2.84165 10.8333Z" stroke="#191919" stroke-width="1.5" stroke-miterlimit="10"/>
</svg>
