<svg width="36" height="36" viewBox="0 0 36 36" fill="none" xmlns="http://www.w3.org/2000/svg">
<path d="M30.885 23.7H5.115C4.35515 23.7 3.62643 23.3981 3.08914 22.8609C2.55185 22.3236 2.25 21.5948 2.25 20.835V9.72C2.24999 9.48629 2.29627 9.2549 2.38615 9.03917C2.47604 8.82344 2.60776 8.62764 2.77371 8.46309C2.93966 8.29853 3.13656 8.16847 3.35304 8.0804C3.56952 7.99234 3.8013 7.94802 4.035 7.95V7.95C4.33334 7.95481 4.62597 8.03249 4.88742 8.17629C5.14886 8.32008 5.37118 8.52562 5.535 8.775C7.74 12 15.135 10.605 15.135 7.95L29.85 14.73C31.0142 15.2702 31.9998 16.1319 32.6907 17.2135C33.3817 18.2951 33.7492 19.5516 33.75 20.835V20.835C33.75 21.5948 33.4482 22.3236 32.9109 22.8609C32.3736 23.3981 31.6448 23.7 30.885 23.7Z" stroke="#191919" stroke-width="1.5" stroke-miterlimit="10"/>
<path d="M33.75 20.835V23.7C33.746 25.2171 33.1406 26.6707 32.0664 27.742C30.9923 28.8134 29.5371 29.415 28.02 29.415H5.11498C4.73819 29.417 4.36474 29.3442 4.01624 29.201C3.66775 29.0577 3.35112 28.8467 3.08468 28.5803C2.81825 28.3139 2.60729 27.9972 2.46401 27.6487C2.32074 27.3002 2.24799 26.9268 2.24998 26.55V20.835" stroke="#191919" stroke-width="1.5" stroke-miterlimit="10"/>
<path d="M13.71 5.085L15.135 7.95" stroke="#191919" stroke-width="1.5" stroke-miterlimit="10"/>
<path d="M18 15.105L20.865 10.8" stroke="#191919" stroke-width="1.5" stroke-miterlimit="10"/>
<path d="M22.29 17.97L25.155 13.665" stroke="#191919" stroke-width="1.5" stroke-miterlimit="10"/>
</svg>
