<svg width="34" height="35" viewBox="0 0 34 35" fill="none" xmlns="http://www.w3.org/2000/svg">
<path d="M25.61 15.605L18.5 8.41999L24.185 2.73499C24.6546 2.26148 25.2129 1.88526 25.8281 1.62786C26.4432 1.37047 27.1032 1.23696 27.77 1.23499V1.23499C29.1146 1.23499 30.4042 1.76914 31.355 2.71995C32.3058 3.67076 32.84 4.96034 32.84 6.30499C32.8413 6.97233 32.7093 7.63322 32.4518 8.24885C32.1942 8.86448 31.8162 9.42245 31.34 9.88999L25.61 15.605Z" stroke="#103178" stroke-width="1.91" stroke-miterlimit="10"/>
<path d="M8.38999 15.605L15.5 8.41999L9.87499 2.73499C9.40544 2.26148 8.84709 1.88526 8.23192 1.62786C7.61675 1.37047 6.95684 1.23696 6.28999 1.23499V1.23499C5.62293 1.23498 4.96242 1.36662 4.34632 1.62235C3.73022 1.87807 3.17064 2.25287 2.69965 2.72525C2.22866 3.19764 1.85552 3.75832 1.60161 4.37517C1.3477 4.99203 1.21802 5.65292 1.21999 6.31999V6.31999C1.21865 6.98733 1.35065 7.64822 1.60823 8.26385C1.86582 8.87948 2.2438 9.43744 2.71999 9.90499L8.38999 15.605Z" stroke="#103178" stroke-width="1.91" stroke-miterlimit="10"/>
<path d="M17 12.725V15.605" stroke="#103178" stroke-width="1.91" stroke-miterlimit="10"/>
<path d="M12.6951 17.03V19.895" stroke="#103178" stroke-width="1.91" stroke-miterlimit="10"/>
<path d="M21.3049 18.47V21.335" stroke="#103178" stroke-width="1.91" stroke-miterlimit="10"/>
<path d="M15.5601 21.335V24.2" stroke="#103178" stroke-width="1.91" stroke-miterlimit="10"/>
<path d="M24.1699 24.2V27.08" stroke="#103178" stroke-width="1.91" stroke-miterlimit="10"/>
<path d="M9.83008 24.2V27.08" stroke="#103178" stroke-width="1.91" stroke-miterlimit="10"/>
<path d="M14.135 31.385V34.25" stroke="#103178" stroke-width="1.91" stroke-miterlimit="10"/>
<path d="M18.4399 27.08V29.945" stroke="#103178" stroke-width="1.91" stroke-miterlimit="10"/>
<path d="M22.7449 31.385V34.25" stroke="#103178" stroke-width="1.91" stroke-miterlimit="10"/>
</svg>
