<svg width="34" height="34" viewBox="0 0 34 34" fill="none" xmlns="http://www.w3.org/2000/svg">
<path d="M1.25 11.2701C1.24999 9.43878 1.75184 7.64251 2.70104 6.07642C3.65023 4.51034 5.01046 3.23433 6.63393 2.38703C8.25741 1.53973 10.082 1.15354 11.9096 1.27044C13.7371 1.38733 15.4977 2.00283 17 3.05006" stroke="#103178" stroke-width="1.91" stroke-miterlimit="10"/>
<path d="M32.7499 11.27C32.7406 8.99943 31.9616 6.79911 30.5401 5.02855C29.1186 3.25798 27.1386 2.02184 24.9237 1.52209C22.7087 1.02234 20.3898 1.28852 18.3457 2.27715C16.3017 3.26577 14.6533 4.9184 13.6699 6.96501" stroke="#103178" stroke-width="1.91" stroke-miterlimit="10"/>
<path d="M32.75 11.27V13.4C32.7485 16.8128 32.0757 20.1919 30.77 23.345C29.4666 26.4926 27.5551 29.3522 25.145 31.76C24.7042 32.2033 24.1488 32.5154 23.541 32.6616C22.9331 32.8077 22.2966 32.7821 21.7024 32.5877C21.1082 32.3933 20.5797 32.0376 20.1759 31.5604C19.772 31.0832 19.5086 30.5032 19.415 29.885L18.5 23.81C18.5 23.4122 18.342 23.0307 18.0607 22.7494C17.7794 22.4681 17.3979 22.31 17 22.31C16.6022 22.31 16.2207 22.4681 15.9394 22.7494C15.6581 23.0307 15.5 23.4122 15.5 23.81L14.57 29.885C14.4765 30.5032 14.2131 31.0832 13.8092 31.5604C13.4053 32.0376 12.8768 32.3933 12.2826 32.5877C11.6885 32.7821 11.0519 32.8077 10.4441 32.6616C9.83622 32.5154 9.28089 32.2033 8.84003 31.76C6.42901 29.3497 4.51747 26.4872 3.21501 23.3365C1.91255 20.1859 1.2448 16.8092 1.25003 13.4V11.27" stroke="#103178" stroke-width="1.91" stroke-miterlimit="10"/>
<path d="M17 11.27H28.46" stroke="#103178" stroke-width="1.91" stroke-miterlimit="10"/>
<path d="M22.73 5.54004V17" stroke="#103178" stroke-width="1.91" stroke-miterlimit="10"/>
</svg>
