<svg width="29" height="34" viewBox="0 0 29 34" fill="none" xmlns="http://www.w3.org/2000/svg">
<path d="M6.125 32.75H24.74" stroke="#103178" stroke-width="1.91" stroke-miterlimit="10"/>
<path d="M6.38013 25.595C6.7411 27.1215 7.48233 28.5319 8.53485 29.695C9.58737 30.8581 10.917 31.7361 12.4 32.2472C13.883 32.7584 15.4712 32.8861 17.0168 32.6186C18.5625 32.351 20.0153 31.6969 21.2402 30.7169C22.4651 29.737 23.4222 28.4632 24.0225 27.014C24.6229 25.5648 24.8469 23.9873 24.6737 22.4283C24.5006 20.8692 23.9359 19.3793 23.0322 18.0971C22.1285 16.815 20.9152 15.7822 19.5051 15.095" stroke="#103178" stroke-width="1.91" stroke-miterlimit="10"/>
<path d="M18.164 9.00621L19.8399 10.682C20.3772 11.2193 20.679 11.9481 20.679 12.7079C20.679 13.4678 20.3772 14.1965 19.8399 14.7338L14.6957 19.878L8.96812 14.1504L14.1123 9.00621C14.6496 8.46892 15.3783 8.16707 16.1382 8.16707C16.898 8.16707 17.6268 8.46892 18.164 9.00621V9.00621Z" stroke="#103178" stroke-width="1.91" stroke-miterlimit="10"/>
<path d="M25.8054 6.60726L22.231 3.03284L17.2246 8.03915L20.7991 11.6136L25.8054 6.60726Z" stroke="#103178" stroke-width="1.91" stroke-miterlimit="10"/>
<path d="M20.45 1.25L27.605 8.405" stroke="#103178" stroke-width="1.91" stroke-miterlimit="10"/>
<path d="M0.39502 25.595H13.28" stroke="#103178" stroke-width="1.91" stroke-miterlimit="10"/>
</svg>
