<svg width="34" height="34" viewBox="0 0 34 34" fill="none" xmlns="http://www.w3.org/2000/svg">
<path d="M19.865 2.67493C20.3121 2.20885 20.8473 1.83623 21.4395 1.57873C22.0318 1.32123 22.6693 1.18397 23.315 1.17493H23.57C24.2158 1.18397 24.8533 1.32123 25.4456 1.57873C26.0378 1.83623 26.573 2.20885 27.02 2.67493L31.325 6.97993C31.7776 7.43319 32.1363 7.97117 32.3808 8.56314C32.6253 9.1551 32.7508 9.78945 32.75 10.4299V10.6849C32.7508 11.3254 32.6253 11.9597 32.3808 12.5517C32.1363 13.1437 31.7776 13.6817 31.325 14.1349L14.135 31.3249C13.6818 31.7774 13.1438 32.1362 12.5518 32.3807C11.9599 32.6252 11.3255 32.7507 10.685 32.7499H10.43C9.78957 32.7507 9.15523 32.6252 8.56326 32.3807C7.97129 32.1362 7.43331 31.7774 6.98005 31.3249L2.67505 27.0199C2.20897 26.5729 1.83636 26.0377 1.57885 25.4454C1.32135 24.8532 1.18409 24.2157 1.17505 23.5699V23.3149C1.18409 22.6692 1.32135 22.0317 1.57885 21.4394C1.83636 20.8472 2.20897 20.312 2.67505 19.8649L18.5 4.11493L19.865 2.67493Z" stroke="#103178" stroke-width="1.91" stroke-miterlimit="10"/>
<path d="M28.46 17L29.885 18.425L31.385 19.925C31.8375 20.3783 32.1963 20.9162 32.4408 21.5082C32.6853 22.1002 32.8108 22.7345 32.81 23.375V23.63C32.8108 24.2705 32.6853 24.9048 32.4408 25.4968C32.1963 26.0888 31.8375 26.6267 31.385 27.08L27.08 31.385C26.6267 31.8375 26.0888 32.1963 25.4968 32.4408C24.9048 32.6853 24.2705 32.8108 23.63 32.81H23.375C22.7345 32.8108 22.1002 32.6853 21.5082 32.4408C20.9162 32.1963 20.3783 31.8375 19.925 31.385L17 28.46" stroke="#103178" stroke-width="1.91" stroke-miterlimit="10"/>
<path d="M5.54005 16.9999L2.67505 14.1349C2.20897 13.6879 1.83636 13.1527 1.57885 12.5604C1.32135 11.9682 1.18409 11.3307 1.17505 10.6849V10.4299C1.18409 9.78418 1.32135 9.14666 1.57885 8.55441C1.83636 7.96215 2.20897 7.42697 2.67505 6.97993L6.98005 2.67493C7.42709 2.20885 7.96228 1.83623 8.55453 1.57873C9.14679 1.32123 9.7843 1.18397 10.4301 1.17493H10.6851C11.3308 1.18397 11.9683 1.32123 12.5606 1.57873C13.1528 1.83623 13.688 2.20885 14.1351 2.67493L17.0001 5.53993" stroke="#103178" stroke-width="1.91" stroke-miterlimit="10"/>
<path d="M16.28 22.0099L11.99 17.7199L17.72 11.9899L19.535 13.8049L22.01 16.2799L16.28 22.0099Z" stroke="#103178" stroke-width="1.91" stroke-miterlimit="10"/>
<path d="M5.54004 22.73H8.40504" stroke="#103178" stroke-width="1.91" stroke-miterlimit="10"/>
<path d="M9.84497 27.0199H12.71" stroke="#103178" stroke-width="1.91" stroke-miterlimit="10"/>
<path d="M21.29 6.97998H24.155" stroke="#103178" stroke-width="1.91" stroke-miterlimit="10"/>
<path d="M25.595 11.2699H28.46" stroke="#103178" stroke-width="1.91" stroke-miterlimit="10"/>
</svg>
