<svg width="34" height="30" viewBox="0 0 34 30" fill="none" xmlns="http://www.w3.org/2000/svg">
<path d="M4.11508 15.5L3.62008 15.005C2.86465 14.2525 2.26483 13.3586 1.85487 12.3743C1.4449 11.3901 1.23282 10.3347 1.23073 9.26841C1.22651 7.11503 2.07789 5.04816 3.59758 3.5225C5.11727 1.99684 7.18079 1.13737 9.33417 1.13315C11.4876 1.12893 13.5544 1.98031 15.0801 3.5L17.0001 5.45L18.9201 3.5C19.6655 2.72088 20.5591 2.09845 21.5483 1.6692C22.5374 1.23995 23.6024 1.01253 24.6806 1.00028C25.7589 0.988025 26.8287 1.19118 27.8274 1.59784C28.8261 2.00449 29.7335 2.60646 30.4965 3.36844C31.2595 4.13042 31.8626 5.03707 32.2706 6.03522C32.6785 7.03338 32.8831 8.10294 32.8723 9.18119C32.8614 10.2594 32.6354 11.3247 32.2074 12.3144C31.7795 13.3042 31.1582 14.1985 30.3801 14.945L29.8851 15.44L17.0001 28.355L8.10508 19.46L4.11508 15.5Z" stroke="#103178" stroke-width="1.91" stroke-miterlimit="10"/>
<path d="M12.7102 14.03H21.2902" stroke="#103178" stroke-width="1.91" stroke-miterlimit="10"/>
<path d="M17 9.73999V18.335" stroke="#103178" stroke-width="1.91" stroke-miterlimit="10"/>
</svg>
