<svg width="34" height="34" viewBox="0 0 34 34" fill="none" xmlns="http://www.w3.org/2000/svg">
<path d="M18.9199 3.62L5.53993 17V24.155L2.13493 27.5C1.85056 27.7826 1.62574 28.1194 1.47373 28.4904C1.32172 28.8614 1.24562 29.2591 1.24993 29.66C1.24993 30.4556 1.566 31.2187 2.12861 31.7813C2.69122 32.3439 3.45428 32.66 4.24993 32.66C4.6594 32.6885 5.07036 32.6326 5.45738 32.4958C5.84439 32.3591 6.19923 32.1444 6.49993 31.865L9.90493 28.46H16.9999L30.3799 15.08C31.8973 13.559 32.7496 11.4984 32.7499 9.35V9.35C32.7499 7.20175 31.8965 5.14148 30.3775 3.62243C28.8585 2.10339 26.7982 1.25 24.6499 1.25V1.25C22.5015 1.25035 20.4409 2.10265 18.9199 3.62V3.62Z" stroke="#103178" stroke-width="1.91" stroke-miterlimit="10"/>
<path d="M22.7381 15.5751L18.4424 11.2794L11.3147 18.4071L15.6104 22.7027L22.7381 15.5751Z" stroke="#103178" stroke-width="1.91" stroke-miterlimit="10"/>
<path d="M22.73 6.97998L27.02 11.27" stroke="#103178" stroke-width="1.91" stroke-miterlimit="10" stroke-linecap="square"/>
</svg>
